<?xml version="1.0" encoding="iso-8859-1"?>
<!-- Generator: Adobe Illustrator 19.0.0, SVG Export Plug-In . SVG Version: 6.00 Build 0)  -->
<svg version="1.1" id="Capa_1" xmlns="http://www.w3.org/2000/svg" xmlns:xlink="http://www.w3.org/1999/xlink" x="0px" y="0px"
	 viewBox="0 0 512.017 512.017" style="enable-background:new 0 0 512.017 512.017;" xml:space="preserve">
<g>
	<path style="fill:#FFE082;" d="M495.722,210.545c-1.632-8.736-10.048-14.24-18.656-12.8c-8.672,1.632-14.4,9.984-12.768,18.656
		c2.368,12.736,3.552,26.048,3.552,39.616c0,39.104-10.432,77.728-30.208,111.776l-8,14.048c-4.384,7.68-1.696,17.44,6.016,21.824
		c2.496,1.408,5.216,2.08,7.904,2.08c5.568,0,10.976-2.912,13.92-8.096l7.936-13.952c22.496-38.784,34.432-82.944,34.432-127.68
		C499.85,240.497,498.474,225.201,495.722,210.545z"/>
	<path style="fill:#FFE082;" d="M259.85,0.017h-16c-60.64,0-119.232,21.728-164.992,61.152c-6.688,5.76-7.456,15.872-1.696,22.56
		c3.168,3.68,7.648,5.568,12.128,5.568c3.712,0,7.424-1.28,10.432-3.872c40-34.432,91.168-53.408,144.128-53.408h16
		c8.832,0,16-7.168,16-16S268.682,0.017,259.85,0.017z"/>
	<path style="fill:#FFE082;" d="M28.106,150.161c2.528,1.472,5.312,2.176,8.032,2.176c5.504,0,10.88-2.848,13.856-7.968
		c5.856-10.08,11.776-18.72,18.048-26.336c5.6-6.816,4.64-16.896-2.208-22.528c-6.816-5.632-16.896-4.64-22.496,2.208
		c-7.36,8.96-14.24,18.976-20.992,30.592C17.898,135.921,20.49,145.713,28.106,150.161z"/>
	<path style="fill:#FFE082;" d="M243.85,480.017c-10.368,0-20.928-0.768-32.32-2.4c-8.672-0.992-16.832,4.832-18.08,13.6
		c-1.248,8.736,4.832,16.832,13.6,18.08c12.864,1.856,24.896,2.72,37.12,2.72c8.832,0,15.84-7.168,15.84-16
		S252.682,480.017,243.85,480.017z"/>
	<path style="fill:#FFE082;" d="M167.882,466.513c-49.6-17.504-91.328-52.384-117.632-98.336l-8.32-14.048
		c-4.48-7.552-14.24-10.048-21.92-5.632c-7.584,4.544-10.112,14.336-5.6,21.952l8.192,13.856
		c30.016,52.448,77.824,92.384,134.656,112.448c1.76,0.64,3.552,0.896,5.344,0.896c6.592,0,12.768-4.096,15.104-10.656
		C180.586,478.609,176.234,469.457,167.882,466.513z"/>
</g>
<g>
	<path style="fill:#FFECB3;" d="M433.77,228.625c-1.344-8.736-9.664-14.656-18.24-13.376c-8.704,1.344-14.72,9.504-13.376,18.24
		c1.12,7.52,1.696,15.04,1.696,22.528c0,19.296-3.52,38.24-10.464,56.384c-3.168,8.256,0.96,17.504,9.216,20.672
		c1.888,0.704,3.808,1.056,5.728,1.056c6.432,0,12.512-3.904,14.944-10.272c8.32-21.792,12.576-44.608,12.576-67.84
		C435.85,246.897,435.178,237.745,433.77,228.625z"/>
	<path style="fill:#FFECB3;" d="M135.082,133.457c3.456,0,6.944-1.12,9.888-3.424c21.056-16.608,46.4-27.68,73.28-31.968
		c8.704-1.376,14.656-9.6,13.28-18.336c-1.408-8.704-9.472-14.656-18.368-13.28c-32.256,5.152-62.688,18.464-88,38.432
		c-6.944,5.472-8.128,15.552-2.656,22.464C125.642,131.345,130.346,133.457,135.082,133.457z"/>
	<path style="fill:#FFECB3;" d="M91.53,184.337c5.504,0,10.848-2.816,13.824-7.904c2.88-4.928,6.08-9.888,9.568-14.528
		c5.312-7.072,3.84-17.12-3.232-22.4c-7.072-5.312-17.12-3.84-22.4,3.232c-4.192,5.6-8.032,11.552-11.52,17.472
		c-4.48,7.616-1.92,17.408,5.696,21.888C85.994,183.633,88.778,184.337,91.53,184.337z"/>
	<path style="fill:#FFECB3;" d="M243.85,416.017c-5.824,0-11.616-0.288-17.152-0.864c-8.608-1.088-16.672,5.408-17.632,14.176
		s5.408,16.672,14.176,17.632c6.624,0.704,13.632,1.056,20.928,1.056c8.832,0,15.84-7.168,15.84-16S252.682,416.017,243.85,416.017z
		"/>
	<path style="fill:#FFECB3;" d="M184.074,404.305c-25.088-9.792-47.232-26.016-64.064-46.944c-5.568-6.912-15.648-8-22.496-2.432
		c-6.88,5.568-7.968,15.616-2.432,22.496c20.352,25.248,47.104,44.864,77.344,56.672c1.92,0.768,3.904,1.12,5.824,1.12
		c6.4,0,12.448-3.872,14.912-10.176C196.394,416.785,192.298,407.505,184.074,404.305z"/>
</g>
<path style="fill:#FFE082;" d="M451.626,173.105c2.432,6.368,8.512,10.272,14.944,10.272c1.92,0,3.84-0.352,5.728-1.056
	c8.256-3.168,12.384-12.416,9.216-20.672c-4.16-10.88-9.44-21.824-16.128-33.344c-4.48-7.712-14.272-10.24-21.888-5.824
	c-7.616,4.448-10.24,14.208-5.824,21.856C443.498,154.385,448.074,163.793,451.626,173.105z"/>
<path style="fill:#FFECB3;" d="M404.49,200.977c1.92,0,3.872-0.352,5.76-1.088c8.256-3.168,12.352-12.448,9.184-20.672
	c-2.56-6.56-5.792-12.8-9.504-19.04c-4.544-7.648-14.4-10.112-21.92-5.632c-7.616,4.512-10.144,14.304-5.664,21.92
	c2.752,4.672,5.248,9.344,7.168,14.272C392.01,197.073,398.058,200.977,404.49,200.977z"/>
<g>
	<path style="fill:#FFC107;" d="M127.978,223.537l74.24,18.56c1.248,0.32,2.56,0.48,3.872,0.48c1.504,0,3.008-0.224,4.48-0.64
		l53.76-15.68c6.848-1.984,11.52-8.256,11.52-15.36V16.017c0-7.04-4.608-13.28-11.36-15.328c-6.688-2.048-14.048,0.576-17.952,6.464
		l-128,192c-2.88,4.32-3.488,9.792-1.6,14.656C118.794,218.641,122.922,222.289,127.978,223.537z"/>
	<path style="fill:#FFC107;" d="M252.522,298.993c-0.8-2.752-2.304-5.216-4.352-7.2l-40.32-38.4
		c-5.12-4.928-12.864-5.792-19.04-2.272L20.17,348.433c-6.112,3.488-9.184,10.624-7.584,17.504c1.6,6.848,7.52,11.872,14.56,12.32
		l230.08,14.72c0.352,0,0.672,0,1.024,0c4.832,0,9.408-2.176,12.48-5.984c3.264-4.064,4.352-9.44,2.912-14.432L252.522,298.993z"/>
	<path style="fill:#FFC107;" d="M457.866,382.673l-102.08-206.688c-2.304-4.672-6.752-7.936-11.872-8.736
		c-5.216-0.704-10.336,0.96-13.984,4.704l-53.12,55.04c-1.952,2.016-3.36,4.512-4.032,7.264l-13.408,54.4
		c-1.696,6.912,1.344,14.144,7.52,17.696l168.64,97.28c2.496,1.44,5.248,2.112,8,2.112c3.968,0,7.904-1.472,10.944-4.32
		C459.626,396.625,461.002,388.977,457.866,382.673z"/>
</g>
<circle style="fill:#FFA000;" cx="243.85" cy="256.017" r="64"/>
<g>
</g>
<g>
</g>
<g>
</g>
<g>
</g>
<g>
</g>
<g>
</g>
<g>
</g>
<g>
</g>
<g>
</g>
<g>
</g>
<g>
</g>
<g>
</g>
<g>
</g>
<g>
</g>
<g>
</g>
</svg>
